<mxfile host="app.diagrams.net" modified="2024-06-19T13:21:14.305Z" agent="Mozilla/5.0 (Windows NT 10.0; Win64; x64) AppleWebKit/537.36 (KHTML, like Gecko) Chrome/126.0.0.0 Safari/537.36" etag="MLsvYTM9ulu5WZbQ6-or" version="24.5.5" type="device">
  <diagram name="Page-1" id="Uf6LLPJrev8ScN7XrmwE">
    <mxGraphModel dx="1726" dy="658" grid="1" gridSize="10" guides="1" tooltips="1" connect="1" arrows="1" fold="1" page="1" pageScale="1" pageWidth="850" pageHeight="1100" math="0" shadow="0">
      <root>
        <mxCell id="0" />
        <mxCell id="1" parent="0" />
        <mxCell id="UoJlIZwDdi7KlXWVPrM0-1" value="Publishing Flows&lt;br&gt;&lt;br&gt;(data out, to jupyter notebook)&amp;nbsp;" style="rounded=0;whiteSpace=wrap;html=1;" vertex="1" parent="1">
          <mxGeometry x="-30" y="40" width="350" height="60" as="geometry" />
        </mxCell>
        <mxCell id="UoJlIZwDdi7KlXWVPrM0-2" value="Subscribing Flows&amp;nbsp;&lt;br&gt;&lt;br&gt;(data in, from Trackmania)" style="rounded=0;whiteSpace=wrap;html=1;" vertex="1" parent="1">
          <mxGeometry x="420" y="40" width="350" height="60" as="geometry" />
        </mxCell>
        <mxCell id="UoJlIZwDdi7KlXWVPrM0-3" value="" style="endArrow=none;dashed=1;html=1;dashPattern=1 3;strokeWidth=2;rounded=0;" edge="1" parent="1">
          <mxGeometry width="50" height="50" relative="1" as="geometry">
            <mxPoint x="370" y="370" as="sourcePoint" />
            <mxPoint x="370" y="40" as="targetPoint" />
          </mxGeometry>
        </mxCell>
        <mxCell id="UoJlIZwDdi7KlXWVPrM0-5" value="tag" style="ellipse;whiteSpace=wrap;html=1;" vertex="1" parent="1">
          <mxGeometry x="70" y="140" width="120" height="80" as="geometry" />
        </mxCell>
      </root>
    </mxGraphModel>
  </diagram>
</mxfile>
